# xmcd
#
# Track frame offsets:
# 150
# 14081
# 26621
# 39053
# 48825
# 62367
# 66366
# 77665
# 97996
# 113733
# 126174
# 139234
# 148518
# 159984
# 171774
# 189799
# 199080
# 216121
# 222556
#
# Disc length: 3250 seconds
#
# Revision: 0
# Processed by: cddbd v1.5.2PL0 Copyright (c) Steve Scherf et al.
# Submitted via: CoinsHifi v1.9h contact@coinshifi.com
#
DISCID=050cb013
DTITLE=Various Artist - w
DYEAR=2000
DGENRE=Acoustic
TTITLE0=n - n
TTITLE1=n - n
TTITLE2=n - n
TTITLE3=n - n
TTITLE4=Luis Segura/Luis Segura/Luis Segura/Luis Segura/Luis Segura/Luis Segura/Luis Segura/Luis Segura/Luis Segura/Luis Segura/Luis Segura/Luis Segura/Luis Segura/Luis Segura/Luis Segura/Luis Segura/Luis Segura/Luis Segura/Luis Segura - Track5
TTITLE5=n/h/nn/hh - n
TTITLE6=n/h/nn/hh - nn
TTITLE7=n/h/nn/hh - n
TTITLE8=n/h/nn/hh - n
TTITLE9=n/h/nn/hh - n
TTITLE10=n/h/nn/hh - ,
TTITLE11=n/h/nn/hh - n
TTITLE12=n/h/nn/hh - n,
TTITLE13=n/h/nn/hh - n
TTITLE14=n/h/nn/hh - n
TTITLE15=n/h/nn/hh - n
TTITLE16=n/h/nn/hh - v
TTITLE17=n/h/nn/hh - v
TTITLE18=n/h/nn/hh - v
EXTD=
EXTT0=YEAR:2000 Instrumental
EXTT1=YEAR:2000 Instrumental
EXTT2=YEAR:2000 Instrumental
EXTT3=YEAR:2000 Instrumental
EXTT4=YEAR:0
EXTT5=YEAR:2000 Instrumental
EXTT6=YEAR:2000 Instrumental
EXTT7=YEAR:2000 Instrumental
EXTT8=YEAR:2000 Instrumental
EXTT9=YEAR:2000 Instrumental
EXTT10=YEAR:2000 Instrumental
EXTT11=YEAR:2000 Instrumental
EXTT12=YEAR:2000 Instrumental
EXTT13=YEAR:2000 Instrumental
EXTT14=YEAR:2000 Instrumental
EXTT15=YEAR:2000 Instrumental
EXTT16=YEAR:2000 Instrumental
EXTT17=YEAR:2000 Instrumental
EXTT18=YEAR:2000 Instrumental
PLAYORDER=
